<svg version="1.1" id="Layer_1" xmlns="http://www.w3.org/2000/svg" xmlns:xlink="http://www.w3.org/1999/xlink" x="0px" y="0px"
	 width="100%" viewBox="0 0 1024 1536" enable-background="new 0 0 1024 1536" xml:space="preserve">
<path fill="#FBF9F7" opacity="1.000000" stroke="none" 
	d="
M915.000000,1537.000000 
	C610.000000,1537.000000 305.500000,1537.000000 1.000000,1537.000000 
	C1.000000,1025.000000 1.000000,513.000000 1.000000,1.000000 
	C342.333344,1.000000 683.666687,1.000000 1025.000000,1.000000 
	C1025.000000,513.000000 1025.000000,1025.000000 1025.000000,1537.000000 
	C988.500000,1537.000000 952.000000,1537.000000 915.000000,1537.000000 
M344.387482,801.440247 
	C344.387268,766.791565 344.416443,732.142761 344.376190,697.494141 
	C344.350769,675.605896 328.168304,659.127869 306.343872,659.050232 
	C267.530975,658.912170 228.717133,658.901184 189.904144,659.004333 
	C169.974838,659.057312 153.859756,675.432068 153.841187,695.389282 
	C153.806610,732.536926 154.381134,769.695435 153.632568,806.827820 
	C153.248871,825.861328 170.120972,846.630615 192.681717,845.390198 
	C197.581497,845.120850 202.508743,845.350891 207.748520,845.350891 
	C207.748520,854.937195 207.530258,863.743347 207.908798,872.523804 
	C207.998474,874.603516 209.652344,877.586792 211.384628,878.354858 
	C213.162048,879.143005 215.992584,877.946350 218.212997,877.183777 
	C219.361252,876.789307 220.208618,875.475891 221.153519,874.538879 
	C229.905334,865.861084 238.562485,857.084534 247.474533,848.574707 
	C249.071304,847.050049 251.700211,845.835876 253.871277,845.805237 
	C270.858917,845.565430 287.851288,845.600830 304.841858,845.656860 
	C311.992096,845.680481 318.772888,844.288513 324.914032,840.616028 
	C339.353943,831.980957 345.506134,819.028137 344.387482,801.440247 
M728.855469,709.500122 
	C728.855469,702.552612 728.855469,695.605164 728.855469,688.403015 
	C721.673828,688.403015 714.946167,688.403015 708.016602,688.403015 
	C707.950867,689.395081 707.851624,690.196350 707.851440,690.997620 
	C707.845703,715.487671 707.931519,739.978149 707.816833,764.467651 
	C707.760803,776.423401 712.377502,786.244324 721.264771,793.857544 
	C735.679382,806.205872 752.532593,807.213135 770.175476,803.256042 
	C786.821167,799.522522 800.565125,784.727173 801.593506,769.083008 
	C802.062439,761.949341 801.747742,754.762817 801.751892,747.600220 
	C801.762512,729.274475 801.808167,710.948303 801.645752,692.623962 
	C801.632629,691.145752 800.206177,688.459167 799.312805,688.405823 
	C793.086121,688.034119 786.826843,688.209412 780.595764,688.209412 
	C780.595764,712.303223 780.896484,735.797485 780.381470,759.273926 
	C780.255005,765.039734 778.721863,771.565247 775.633179,776.307129 
	C769.632080,785.520264 755.981140,788.423462 744.548218,784.496033 
	C734.434875,781.021851 728.891357,772.592224 728.865906,760.479736 
	C728.830872,743.819885 728.857056,727.159912 728.855469,709.500122 
M815.028564,752.500000 
	C815.028564,780.253784 815.028564,808.007568 815.028564,835.778931 
	C822.237915,835.778931 828.834412,835.778931 835.573242,835.778931 
	C835.573242,821.080139 835.573242,806.602661 835.573242,793.276978 
	C840.512085,796.671936 845.396423,802.289490 851.262878,803.639709 
	C869.080627,807.740540 885.170654,801.407776 892.814941,783.050720 
	C900.591187,764.376709 899.624878,745.851685 887.009644,728.900330 
	C876.637756,714.963318 856.449585,711.533081 842.140564,721.588745 
	C839.490540,723.450989 837.201050,725.826172 834.336548,728.320374 
	C834.336548,724.531128 834.336548,721.209778 834.336548,717.586792 
	C827.902710,717.586792 821.696289,717.586792 815.027588,717.586792 
	C815.027588,728.938477 815.027588,740.219238 815.028564,752.500000 
M391.108429,792.474609 
	C391.108429,795.910889 391.108429,799.347229 391.108429,802.741211 
	C398.556152,802.741211 405.455627,802.741211 412.741882,802.741211 
	C412.741882,789.744690 412.741882,777.034607 412.741882,763.225525 
	C423.080750,763.225525 433.148987,764.199585 442.958862,763.021912 
	C463.108093,760.602905 475.033173,746.600769 475.048431,727.023499 
	C475.064362,706.589233 462.890961,691.128662 443.058746,689.151917 
	C427.225708,687.573914 411.157532,688.349487 395.193329,688.104919 
	C393.924377,688.085571 392.652466,688.258301 391.108490,688.359741 
	C391.108490,722.943176 391.108490,757.211731 391.108429,792.474609 
M482.180450,741.713379 
	C481.120178,748.896423 478.961304,756.119202 479.219177,763.254639 
	C479.831085,780.185547 486.957245,793.983154 503.176086,800.940796 
	C519.730225,808.042114 535.654480,806.050476 549.605103,794.182434 
	C567.192627,779.220520 569.169189,744.723083 549.599426,726.868958 
	C531.029358,709.926880 493.754517,712.915283 482.180450,741.713379 
M615.102173,787.080017 
	C603.376343,791.021851 595.377930,788.562744 590.412292,779.620239 
	C583.920349,779.620239 577.521301,779.620239 570.993225,779.620239 
	C570.548523,788.656982 574.416077,795.132874 581.666504,799.299133 
	C598.046265,808.711365 619.113159,806.503174 633.336304,794.266479 
	C643.933716,785.149048 642.808350,766.032837 630.759521,759.165222 
	C625.543335,756.192078 619.379578,754.795471 613.543091,753.022156 
	C608.314636,751.433655 602.742798,750.805664 597.728516,748.758972 
	C595.472229,747.838013 592.992798,744.604919 592.777161,742.225098 
	C592.467468,738.806030 593.899109,735.226013 597.977783,733.582275 
	C607.286255,729.830811 616.539734,733.171204 620.635986,741.975464 
	C626.444214,741.975464 632.233154,741.975464 638.015564,741.975464 
	C638.196167,733.097717 633.873169,725.445068 625.823059,721.111816 
	C614.299805,714.908997 602.136169,714.393311 590.182800,719.203674 
	C579.287964,723.588196 573.027771,731.965820 572.758911,744.144409 
	C572.542114,753.964783 576.338074,760.663086 585.552185,763.876465 
	C594.594238,767.029907 604.065979,768.939453 613.316223,771.513367 
	C616.782349,772.477844 619.951843,774.099426 620.552917,778.171997 
	C621.135864,782.122192 619.104492,784.822998 615.102173,787.080017 
M682.065613,784.620544 
	C680.722168,781.570618 678.347778,778.563354 678.219482,775.463074 
	C677.745117,763.996704 678.012207,752.499695 678.001526,741.014160 
	C677.999451,738.772095 678.001160,736.530029 678.001160,733.989868 
	C684.162842,733.989868 689.589966,733.989868 695.105347,733.989868 
	C695.105347,728.432556 695.105347,723.190125 695.105347,717.564941 
	C689.303955,717.564941 683.756836,717.564941 677.835754,717.564941 
	C677.835754,710.447144 677.835754,703.713074 677.835754,696.947510 
	C670.998169,696.947510 664.558350,696.947510 657.823242,696.947510 
	C657.823242,703.929932 657.823242,710.707520 657.823242,717.911194 
	C653.456726,717.911194 649.380188,717.911194 645.355835,717.911194 
	C645.355835,723.458923 645.355835,728.570679 645.355835,734.206543 
	C649.595642,734.206543 653.646179,734.206543 658.039612,734.206543 
	C658.039612,751.023682 658.023621,767.312744 658.046875,783.601807 
	C658.057129,790.745911 661.330750,795.914429 667.619385,799.278198 
	C676.381348,803.964966 685.690918,803.838196 695.066406,803.026062 
	C695.066406,797.305176 695.066406,792.050781 695.066406,787.505676 
	C690.699341,786.619080 686.730225,785.813232 682.065613,784.620544 
z"/>
<path fill="#2593FF" opacity="1.000000" stroke="none" 
	d="
M344.392090,801.928467 
	C345.506134,819.028137 339.353943,831.980957 324.914032,840.616028 
	C318.772888,844.288513 311.992096,845.680481 304.841858,845.656860 
	C287.851288,845.600830 270.858917,845.565430 253.871277,845.805237 
	C251.700211,845.835876 249.071304,847.050049 247.474533,848.574707 
	C238.562485,857.084534 229.905334,865.861084 221.153519,874.538879 
	C220.208618,875.475891 219.361252,876.789307 218.212997,877.183777 
	C215.992584,877.946350 213.162048,879.143005 211.384628,878.354858 
	C209.652344,877.586792 207.998474,874.603516 207.908798,872.523804 
	C207.530258,863.743347 207.748520,854.937195 207.748520,845.350891 
	C202.508743,845.350891 197.581497,845.120850 192.681717,845.390198 
	C170.120972,846.630615 153.248871,825.861328 153.632568,806.827820 
	C154.381134,769.695435 153.806610,732.536926 153.841187,695.389282 
	C153.859756,675.432068 169.974838,659.057312 189.904144,659.004333 
	C228.717133,658.901184 267.530975,658.912170 306.343872,659.050232 
	C328.168304,659.127869 344.350769,675.605896 344.376190,697.494141 
	C344.416443,732.142761 344.387268,766.791565 344.392090,801.928467 
M228.030792,789.530579 
	C243.213379,774.535522 258.395966,759.540466 273.975830,744.153076 
	C273.975830,752.536133 273.947205,760.341248 273.984741,768.145996 
	C274.015411,774.520752 276.639923,777.661011 282.059631,777.949646 
	C287.392365,778.233643 292.099915,774.795837 292.196777,769.248169 
	C292.495911,752.110168 292.557343,734.954773 292.087738,717.823181 
	C291.897675,710.889160 287.174347,707.036682 280.183350,706.950684 
	C265.856415,706.774475 251.525314,706.832764 237.196930,706.934509 
	C232.270096,706.969543 228.126144,709.022888 225.210724,713.085510 
	C220.494843,719.656982 224.140808,727.820801 232.170151,728.649536 
	C234.479660,728.887878 236.831329,728.729858 239.163696,728.732483 
	C245.364410,728.739380 251.565125,728.734802 257.765839,728.734802 
	C241.434662,746.506104 224.604202,763.101624 207.821381,779.745117 
	C205.701706,781.847168 203.588318,784.032166 201.895447,786.472412 
	C198.036438,792.035278 198.466492,797.556519 202.727890,801.298096 
	C206.665237,804.755066 212.282104,804.483093 217.195358,800.184937 
	C220.824326,797.010315 224.098862,793.430481 228.030792,789.530579 
z"/>
<path fill="#141617" opacity="1.000000" stroke="none" 
	d="
M728.856201,710.000061 
	C728.857056,727.159912 728.830872,743.819885 728.865906,760.479736 
	C728.891357,772.592224 734.434875,781.021851 744.548218,784.496033 
	C755.981140,788.423462 769.632080,785.520264 775.633179,776.307129 
	C778.721863,771.565247 780.255005,765.039734 780.381470,759.273926 
	C780.896484,735.797485 780.595764,712.303223 780.595764,688.209412 
	C786.826843,688.209412 793.086121,688.034119 799.312805,688.405823 
	C800.206177,688.459167 801.632629,691.145752 801.645752,692.623962 
	C801.808167,710.948303 801.762512,729.274475 801.751892,747.600220 
	C801.747742,754.762817 802.062439,761.949341 801.593506,769.083008 
	C800.565125,784.727173 786.821167,799.522522 770.175476,803.256042 
	C752.532593,807.213135 735.679382,806.205872 721.264771,793.857544 
	C712.377502,786.244324 707.760803,776.423401 707.816833,764.467651 
	C707.931519,739.978149 707.845703,715.487671 707.851440,690.997620 
	C707.851624,690.196350 707.950867,689.395081 708.016602,688.403015 
	C714.946167,688.403015 721.673828,688.403015 728.855469,688.403015 
	C728.855469,695.605164 728.855469,702.552612 728.856201,710.000061 
z"/>
<path fill="#141617" opacity="1.000000" stroke="none" 
	d="
M815.028076,752.000000 
	C815.027588,740.219238 815.027588,728.938477 815.027588,717.586792 
	C821.696289,717.586792 827.902710,717.586792 834.336548,717.586792 
	C834.336548,721.209778 834.336548,724.531128 834.336548,728.320374 
	C837.201050,725.826172 839.490540,723.450989 842.140564,721.588745 
	C856.449585,711.533081 876.637756,714.963318 887.009644,728.900330 
	C899.624878,745.851685 900.591187,764.376709 892.814941,783.050720 
	C885.170654,801.407776 869.080627,807.740540 851.262878,803.639709 
	C845.396423,802.289490 840.512085,796.671936 835.573242,793.276978 
	C835.573242,806.602661 835.573242,821.080139 835.573242,835.778931 
	C828.834412,835.778931 822.237915,835.778931 815.028564,835.778931 
	C815.028564,808.007568 815.028564,780.253784 815.028076,752.000000 
M874.841614,773.955139 
	C877.694214,765.348206 877.944946,756.710022 874.981750,748.088928 
	C871.898499,739.118530 864.492310,733.728577 855.581116,733.833679 
	C846.748291,733.937805 839.392822,739.041504 837.206482,748.373352 
	C835.732666,754.663940 835.580078,761.501099 836.149475,767.978333 
	C837.028320,777.975037 844.228882,785.247070 853.261902,786.793152 
	C861.766235,788.248840 869.606445,783.767273 874.841614,773.955139 
z"/>
<path fill="#141617" opacity="1.000000" stroke="none" 
	d="
M391.108459,791.977417 
	C391.108490,757.211731 391.108490,722.943176 391.108490,688.359741 
	C392.652466,688.258301 393.924377,688.085571 395.193329,688.104919 
	C411.157532,688.349487 427.225708,687.573914 443.058746,689.151917 
	C462.890961,691.128662 475.064362,706.589233 475.048431,727.023499 
	C475.033173,746.600769 463.108093,760.602905 442.958862,763.021912 
	C433.148987,764.199585 423.080750,763.225525 412.741882,763.225525 
	C412.741882,777.034607 412.741882,789.744690 412.741882,802.741211 
	C405.455627,802.741211 398.556152,802.741211 391.108429,802.741211 
	C391.108429,799.347229 391.108429,795.910889 391.108459,791.977417 
M412.616364,729.498718 
	C412.616364,734.794983 412.616364,740.091309 412.616364,746.696655 
	C422.524567,745.749634 432.091705,745.635132 441.281372,743.714478 
	C449.246979,742.049744 453.594025,733.508911 452.899872,724.477600 
	C452.238617,715.874573 447.024719,709.229431 438.712280,708.185425 
	C430.207947,707.117371 421.557526,707.212341 412.598999,706.780334 
	C412.598999,714.570557 412.598999,721.534790 412.616364,729.498718 
z"/>
<path fill="#141617" opacity="1.000000" stroke="none" 
	d="
M482.367889,741.376160 
	C493.754517,712.915283 531.029358,709.926880 549.599426,726.868958 
	C569.169189,744.723083 567.192627,779.220520 549.605103,794.182434 
	C535.654480,806.050476 519.730225,808.042114 503.176086,800.940796 
	C486.957245,793.983154 479.831085,780.185547 479.219177,763.254639 
	C478.961304,756.119202 481.120178,748.896423 482.367889,741.376160 
M501.382782,748.277161 
	C500.918365,754.514099 499.788818,760.788452 500.137482,766.979553 
	C500.736725,777.619934 508.897949,786.029480 518.386658,786.940002 
	C529.683350,788.024048 538.409485,782.054260 541.514954,770.950928 
	C543.528931,763.749878 543.469055,756.506409 541.228821,749.348206 
	C538.346008,740.136536 531.477112,734.363159 523.126770,734.015625 
	C512.585022,733.576843 505.956268,737.788513 501.382782,748.277161 
z"/>
<path fill="#141617" opacity="1.000000" stroke="none" 
	d="
M615.490784,786.937866 
	C619.104492,784.822998 621.135864,782.122192 620.552917,778.171997 
	C619.951843,774.099426 616.782349,772.477844 613.316223,771.513367 
	C604.065979,768.939453 594.594238,767.029907 585.552185,763.876465 
	C576.338074,760.663086 572.542114,753.964783 572.758911,744.144409 
	C573.027771,731.965820 579.287964,723.588196 590.182800,719.203674 
	C602.136169,714.393311 614.299805,714.908997 625.823059,721.111816 
	C633.873169,725.445068 638.196167,733.097717 638.015564,741.975464 
	C632.233154,741.975464 626.444214,741.975464 620.635986,741.975464 
	C616.539734,733.171204 607.286255,729.830811 597.977783,733.582275 
	C593.899109,735.226013 592.467468,738.806030 592.777161,742.225098 
	C592.992798,744.604919 595.472229,747.838013 597.728516,748.758972 
	C602.742798,750.805664 608.314636,751.433655 613.543091,753.022156 
	C619.379578,754.795471 625.543335,756.192078 630.759521,759.165222 
	C642.808350,766.032837 643.933716,785.149048 633.336304,794.266479 
	C619.113159,806.503174 598.046265,808.711365 581.666504,799.299133 
	C574.416077,795.132874 570.548523,788.656982 570.993225,779.620239 
	C577.521301,779.620239 583.920349,779.620239 590.412292,779.620239 
	C595.377930,788.562744 603.376343,791.021851 615.490784,786.937866 
z"/>
<path fill="#141617" opacity="1.000000" stroke="none" 
	d="
M682.413391,784.813965 
	C686.730225,785.813232 690.699341,786.619080 695.066406,787.505676 
	C695.066406,792.050781 695.066406,797.305176 695.066406,803.026062 
	C685.690918,803.838196 676.381348,803.964966 667.619385,799.278198 
	C661.330750,795.914429 658.057129,790.745911 658.046875,783.601807 
	C658.023621,767.312744 658.039612,751.023682 658.039612,734.206543 
	C653.646179,734.206543 649.595642,734.206543 645.355835,734.206543 
	C645.355835,728.570679 645.355835,723.458923 645.355835,717.911194 
	C649.380188,717.911194 653.456726,717.911194 657.823242,717.911194 
	C657.823242,710.707520 657.823242,703.929932 657.823242,696.947510 
	C664.558350,696.947510 670.998169,696.947510 677.835754,696.947510 
	C677.835754,703.713074 677.835754,710.447144 677.835754,717.564941 
	C683.756836,717.564941 689.303955,717.564941 695.105347,717.564941 
	C695.105347,723.190125 695.105347,728.432556 695.105347,733.989868 
	C689.589966,733.989868 684.162842,733.989868 678.001160,733.989868 
	C678.001160,736.530029 677.999451,738.772095 678.001526,741.014160 
	C678.012207,752.499695 677.745117,763.996704 678.219482,775.463074 
	C678.347778,778.563354 680.722168,781.570618 682.413391,784.813965 
z"/>
<path fill="#F8F8F6" opacity="1.000000" stroke="none" 
	d="
M227.781067,789.780884 
	C224.098862,793.430481 220.824326,797.010315 217.195358,800.184937 
	C212.282104,804.483093 206.665237,804.755066 202.727890,801.298096 
	C198.466492,797.556519 198.036438,792.035278 201.895447,786.472412 
	C203.588318,784.032166 205.701706,781.847168 207.821381,779.745117 
	C224.604202,763.101624 241.434662,746.506104 257.765839,728.734802 
	C251.565125,728.734802 245.364410,728.739380 239.163696,728.732483 
	C236.831329,728.729858 234.479660,728.887878 232.170151,728.649536 
	C224.140808,727.820801 220.494843,719.656982 225.210724,713.085510 
	C228.126144,709.022888 232.270096,706.969543 237.196930,706.934509 
	C251.525314,706.832764 265.856415,706.774475 280.183350,706.950684 
	C287.174347,707.036682 291.897675,710.889160 292.087738,717.823181 
	C292.557343,734.954773 292.495911,752.110168 292.196777,769.248169 
	C292.099915,774.795837 287.392365,778.233643 282.059631,777.949646 
	C276.639923,777.661011 274.015411,774.520752 273.984741,768.145996 
	C273.947205,760.341248 273.975830,752.536133 273.975830,744.153076 
	C258.395966,759.540466 243.213379,774.535522 227.781067,789.780884 
z"/>
<path fill="#F8F8F6" opacity="1.000000" stroke="none" 
	d="
M874.669922,774.304688 
	C869.606445,783.767273 861.766235,788.248840 853.261902,786.793152 
	C844.228882,785.247070 837.028320,777.975037 836.149475,767.978333 
	C835.580078,761.501099 835.732666,754.663940 837.206482,748.373352 
	C839.392822,739.041504 846.748291,733.937805 855.581116,733.833679 
	C864.492310,733.728577 871.898499,739.118530 874.981750,748.088928 
	C877.944946,756.710022 877.694214,765.348206 874.669922,774.304688 
z"/>
<path fill="#F8F8F6" opacity="1.000000" stroke="none" 
	d="
M412.607666,728.998901 
	C412.598999,721.534790 412.598999,714.570557 412.598999,706.780334 
	C421.557526,707.212341 430.207947,707.117371 438.712280,708.185425 
	C447.024719,709.229431 452.238617,715.874573 452.899872,724.477600 
	C453.594025,733.508911 449.246979,742.049744 441.281372,743.714478 
	C432.091705,745.635132 422.524567,745.749634 412.616364,746.696655 
	C412.616364,740.091309 412.616364,734.794983 412.607666,728.998901 
z"/>
<path fill="#F8F8F6" opacity="1.000000" stroke="none" 
	d="
M501.577087,747.930542 
	C505.956268,737.788513 512.585022,733.576843 523.126770,734.015625 
	C531.477112,734.363159 538.346008,740.136536 541.228821,749.348206 
	C543.469055,756.506409 543.528931,763.749878 541.514954,770.950928 
	C538.409485,782.054260 529.683350,788.024048 518.386658,786.940002 
	C508.897949,786.029480 500.736725,777.619934 500.137482,766.979553 
	C499.788818,760.788452 500.918365,754.514099 501.577087,747.930542 
z"/>
</svg>