<svg version="1.1" id="Layer_1" xmlns="http://www.w3.org/2000/svg" xmlns:xlink="http://www.w3.org/1999/xlink" x="0px" y="0px"
	 width="100%" viewBox="0 0 1230 400" enable-background="new 0 0 1230 400" xml:space="preserve">
<path fill="#FAF9F7" opacity="1.000000" stroke="none" 
	d="
M795.000000,401.000000 
	C530.000061,401.000000 265.500092,401.000000 1.000107,401.000000 
	C1.000071,267.666748 1.000071,134.333481 1.000036,1.000160 
	C410.999847,1.000107 820.999695,1.000107 1230.999634,1.000053 
	C1230.999756,134.333160 1230.999756,267.666321 1230.999878,400.999756 
	C1085.833374,401.000000 940.666687,401.000000 795.000000,401.000000 
M80.000496,190.500000 
	C79.945351,214.162933 79.706802,237.827408 79.905952,261.488190 
	C80.019829,275.016083 86.108353,286.281799 95.394341,295.674988 
	C105.318146,305.713318 117.438202,310.885162 131.821564,310.333038 
	C138.753967,310.066925 145.705032,310.287170 153.100189,310.287170 
	C153.100189,321.993408 152.978439,332.974762 153.186081,343.949921 
	C153.237778,346.681732 153.764709,349.764465 155.170074,351.994690 
	C156.256119,353.718201 159.316727,355.590576 161.038437,355.225098 
	C164.433914,354.504242 168.123184,352.923706 170.612701,350.562103 
	C182.216385,339.554596 193.503510,328.210388 204.791489,316.874695 
	C208.783188,312.866119 213.283936,310.893524 219.032669,310.933502 
	C241.028824,311.086670 263.026855,311.042236 285.023895,310.976532 
	C314.460327,310.888641 338.912506,288.037140 338.467468,256.999237 
	C337.779419,209.014755 338.306213,161.013123 338.250916,113.018860 
	C338.245941,108.703934 338.278442,104.279198 337.400055,100.092941 
	C331.915558,73.954826 312.842224,58.825722 285.010101,58.753712 
	C233.183228,58.619625 181.355743,58.702099 129.528580,58.752789 
	C126.048103,58.756195 122.476936,58.835850 119.102562,59.580593 
	C95.925331,64.695930 80.029968,84.271828 79.927528,108.009895 
	C79.810310,135.172653 79.964325,162.336578 80.000496,190.500000 
M950.348022,231.815048 
	C956.251343,223.858780 959.908875,214.966904 959.972473,205.042877 
	C960.183533,172.060410 960.140564,139.076187 960.118530,106.092705 
	C960.117371,104.322334 959.687683,102.425713 958.942139,100.828384 
	C958.472168,99.821594 957.056396,98.626740 956.040527,98.604004 
	C947.965332,98.423241 939.884338,98.503273 931.558411,98.503273 
	C931.558411,100.629379 931.565002,102.441193 931.557434,104.252937 
	C931.433105,133.906647 931.327087,163.560471 931.169006,193.214005 
	C931.120911,202.240326 929.132629,210.831604 923.575867,218.075699 
	C914.644714,229.718613 896.302673,233.607346 881.252747,227.271851 
	C866.776550,221.177872 861.487854,209.485535 861.470703,194.528305 
	C861.436035,164.372986 861.273193,134.217819 861.164551,104.062592 
	C861.158203,102.310287 861.163696,100.557938 861.163696,98.776741 
	C851.405396,98.776741 842.308167,98.776741 833.172668,98.776741 
	C833.054626,99.701454 832.897217,100.357521 832.897522,101.013527 
	C832.913635,135.833099 832.668701,170.656250 833.121765,205.470291 
	C833.278137,217.488235 838.531067,227.975632 846.993713,236.673187 
	C861.730896,251.819641 879.984375,257.354858 900.607178,255.896088 
	C920.054932,254.520416 937.434509,248.516861 950.348022,231.815048 
M1064.001221,249.538422 
	C1069.272705,244.341385 1076.078857,240.002960 1079.549805,233.798615 
	C1094.510620,207.056793 1094.911377,180.308105 1076.661133,154.511459 
	C1063.513428,135.927048 1038.347412,130.267029 1018.581604,141.725845 
	C1013.829895,144.480560 1009.618652,148.167603 1004.514587,151.896545 
	C1004.514587,146.909134 1004.514587,142.656860 1004.514587,138.325928 
	C995.514160,138.325928 986.973022,138.325928 978.486572,138.325928 
	C978.486572,191.504211 978.486572,244.352158 978.486572,297.131714 
	C987.856201,297.131714 996.898804,297.131714 1006.305908,297.131714 
	C1006.305908,278.043884 1006.305908,259.326904 1006.305908,239.227875 
	C1023.356262,257.249481 1042.380737,259.526459 1064.001221,249.538422 
M513.828979,165.170441 
	C514.279297,158.247787 515.453186,151.282593 515.049194,144.410156 
	C513.632446,120.310104 498.221985,102.461472 474.201477,100.230736 
	C451.057587,98.081390 427.648804,98.779854 404.355469,98.268578 
	C403.615570,98.252335 402.865662,98.692558 402.253998,98.879219 
	C402.253998,150.261581 402.253998,201.343857 402.253998,252.588165 
	C411.917633,252.588165 421.325317,252.588165 431.281525,252.588165 
	C431.281525,234.970474 431.281525,217.587540 431.281525,200.000092 
	C443.980804,200.000092 456.133087,200.126877 468.281738,199.972214 
	C489.862244,199.697479 508.175934,185.867950 513.828979,165.170441 
M526.050781,169.723312 
	C524.800720,175.919174 523.130310,182.063889 522.369080,188.319229 
	C517.591187,227.581512 540.164429,253.793045 579.059082,255.663727 
	C599.098022,256.627533 625.891602,240.655930 633.371765,217.982910 
	C641.409241,193.620392 633.246704,161.972839 614.767212,148.402359 
	C587.941467,128.702759 541.440491,133.640472 526.050781,169.723312 
M709.894470,164.626373 
	C711.794800,166.799988 713.521484,170.626984 715.626953,170.848160 
	C722.980286,171.620636 730.464539,171.147232 737.996643,171.147232 
	C737.712402,159.256836 733.277039,150.134262 723.559143,144.197632 
	C706.827271,133.976212 689.286804,133.277451 671.507324,141.147583 
	C655.057983,148.428925 647.096252,163.651382 649.946899,181.383972 
	C651.600464,191.669830 657.562805,197.705017 667.689941,200.305435 
	C680.729858,203.653793 693.687683,207.333359 706.624695,211.065094 
	C710.885559,212.294174 713.838196,214.986954 714.190308,219.897934 
	C714.543457,224.824326 712.501221,228.813583 708.303772,230.566986 
	C697.092651,235.250336 683.323975,236.403915 674.933655,223.600647 
	C674.234680,222.534058 672.790527,221.301224 671.664917,221.273636 
	C663.553589,221.074783 655.435059,221.167084 647.379150,221.167084 
	C646.176880,233.069489 652.229553,243.513992 662.976074,248.698395 
	C686.416626,260.006683 708.403931,257.554871 729.786438,242.820374 
	C743.063293,233.671494 747.664368,205.360397 728.617188,194.859360 
	C724.863770,192.790054 720.810303,191.094711 716.703369,189.870422 
	C706.352905,186.784973 695.855652,184.193634 685.491943,181.149857 
	C679.980469,179.531128 676.960754,175.375900 676.839111,170.251892 
	C676.717529,165.137299 679.656555,161.072433 685.292603,159.250580 
	C694.166443,156.382141 702.361450,157.460968 709.894470,164.626373 
M747.997314,142.751602 
	C747.997314,148.681961 747.997314,154.612305 747.997314,160.960419 
	C754.029968,160.960419 759.446655,160.960419 765.167969,160.960419 
	C765.167969,163.014893 765.167969,164.652985 765.167969,166.291077 
	C765.167969,185.619034 765.120972,204.947144 765.183960,224.274902 
	C765.228455,237.916473 770.717529,245.348663 783.515198,250.262695 
	C793.838379,254.226547 804.415710,253.413757 815.271423,252.982880 
	C815.271423,245.944351 815.271423,239.165802 815.271423,232.031006 
	C810.618713,230.999359 805.906494,230.044662 801.251160,228.865250 
	C799.920288,228.528076 798.055847,227.826965 797.633606,226.800278 
	C795.775696,222.282455 793.204407,217.637878 792.986572,212.942062 
	C792.238159,196.808594 792.361572,180.634399 792.178406,164.475433 
	C792.162354,163.058929 792.333984,161.640305 792.437927,159.896515 
	C800.336792,159.896515 807.759399,159.896515 815.227417,159.896515 
	C815.227417,152.435013 815.227417,145.336182 815.227417,137.814270 
	C807.368652,137.814270 799.782654,137.814270 791.789673,137.814270 
	C791.789673,128.316711 791.789673,119.241447 791.789673,110.323143 
	C782.628906,110.323143 773.892029,110.323143 764.732300,110.323143 
	C764.732300,119.880196 764.732300,129.116302 764.732300,138.499481 
	C759.804077,138.499481 755.303284,138.635040 750.815857,138.448822 
	C748.108154,138.336456 747.780029,139.727814 747.997314,142.751602 
z"/>
<path fill="#6494FA" opacity="1.000000" stroke="none" 
	d="
M80.000496,190.000000 
	C79.964325,162.336578 79.810310,135.172653 79.927528,108.009895 
	C80.029968,84.271828 95.925331,64.695930 119.102562,59.580593 
	C122.476936,58.835850 126.048103,58.756195 129.528580,58.752789 
	C181.355743,58.702099 233.183228,58.619625 285.010101,58.753712 
	C312.842224,58.825722 331.915558,73.954826 337.400055,100.092941 
	C338.278442,104.279198 338.245941,108.703934 338.250916,113.018860 
	C338.306213,161.013123 337.779419,209.014755 338.467468,256.999237 
	C338.912506,288.037140 314.460327,310.888641 285.023895,310.976532 
	C263.026855,311.042236 241.028824,311.086670 219.032669,310.933502 
	C213.283936,310.893524 208.783188,312.866119 204.791489,316.874695 
	C193.503510,328.210388 182.216385,339.554596 170.612701,350.562103 
	C168.123184,352.923706 164.433914,354.504242 161.038437,355.225098 
	C159.316727,355.590576 156.256119,353.718201 155.170074,351.994690 
	C153.764709,349.764465 153.237778,346.681732 153.186081,343.949921 
	C152.978439,332.974762 153.100189,321.993408 153.100189,310.287170 
	C145.705032,310.287170 138.753967,310.066925 131.821564,310.333038 
	C117.438202,310.885162 105.318146,305.713318 95.394341,295.674988 
	C86.108353,286.281799 80.019829,275.016083 79.905952,261.488190 
	C79.706802,237.827408 79.945351,214.162933 80.000496,190.000000 
M210.830292,205.332764 
	C221.378067,195.388809 231.925842,185.444870 242.998093,175.006454 
	C242.998093,186.001083 242.989716,196.151154 243.000687,206.301208 
	C243.009705,214.640091 246.523132,218.821732 253.637238,219.000656 
	C262.230652,219.216812 267.862732,214.638367 267.915894,206.629517 
	C268.064117,184.297592 268.136475,161.960434 267.796234,139.632080 
	C267.634338,129.007721 262.568878,124.128258 251.943756,123.869080 
	C232.958328,123.405991 213.962387,123.153458 194.972168,123.216469 
	C187.223190,123.242188 180.338165,125.783226 175.908630,132.997574 
	C170.535294,141.749054 175.968933,152.585602 186.259415,152.967758 
	C194.249481,153.264496 202.253983,153.179138 210.252182,153.247787 
	C213.154999,153.272690 216.058197,153.251785 218.961227,153.251785 
	C219.104721,153.686432 219.248215,154.121078 219.391724,154.555725 
	C213.188324,161.216324 207.183441,168.075974 200.742996,174.498886 
	C183.777420,191.418304 166.502594,208.029175 149.646957,225.055984 
	C146.374588,228.361572 143.923019,232.765091 142.026260,237.073166 
	C139.775894,242.184464 141.857788,246.761887 145.809174,250.503235 
	C149.885742,254.363098 154.676849,255.224701 159.624924,252.976669 
	C162.733566,251.564331 165.714920,249.480881 168.177658,247.102402 
	C182.321335,233.442566 196.292816,219.604431 210.830292,205.332764 
z"/>
<path fill="#161718" opacity="1.000000" stroke="none" 
	d="
M950.128418,232.097717 
	C937.434509,248.516861 920.054932,254.520416 900.607178,255.896088 
	C879.984375,257.354858 861.730896,251.819641 846.993713,236.673187 
	C838.531067,227.975632 833.278137,217.488235 833.121765,205.470291 
	C832.668701,170.656250 832.913635,135.833099 832.897522,101.013527 
	C832.897217,100.357521 833.054626,99.701454 833.172668,98.776741 
	C842.308167,98.776741 851.405396,98.776741 861.163696,98.776741 
	C861.163696,100.557938 861.158203,102.310287 861.164551,104.062592 
	C861.273193,134.217819 861.436035,164.372986 861.470703,194.528305 
	C861.487854,209.485535 866.776550,221.177872 881.252747,227.271851 
	C896.302673,233.607346 914.644714,229.718613 923.575867,218.075699 
	C929.132629,210.831604 931.120911,202.240326 931.169006,193.214005 
	C931.327087,163.560471 931.433105,133.906647 931.557434,104.252937 
	C931.565002,102.441193 931.558411,100.629379 931.558411,98.503273 
	C939.884338,98.503273 947.965332,98.423241 956.040527,98.604004 
	C957.056396,98.626740 958.472168,99.821594 958.942139,100.828384 
	C959.687683,102.425713 960.117371,104.322334 960.118530,106.092705 
	C960.140564,139.076187 960.183533,172.060410 959.972473,205.042877 
	C959.908875,214.966904 956.251343,223.858780 950.128418,232.097717 
z"/>
<path fill="#171819" opacity="1.000000" stroke="none" 
	d="
M1063.677979,249.715668 
	C1042.380737,259.526459 1023.356262,257.249481 1006.305908,239.227875 
	C1006.305908,259.326904 1006.305908,278.043884 1006.305908,297.131714 
	C996.898804,297.131714 987.856201,297.131714 978.486572,297.131714 
	C978.486572,244.352158 978.486572,191.504211 978.486572,138.325928 
	C986.973022,138.325928 995.514160,138.325928 1004.514587,138.325928 
	C1004.514587,142.656860 1004.514587,146.909134 1004.514587,151.896545 
	C1009.618652,148.167603 1013.829895,144.480560 1018.581604,141.725845 
	C1038.347412,130.267029 1063.513428,135.927048 1076.661133,154.511459 
	C1094.911377,180.308105 1094.510620,207.056793 1079.549805,233.798615 
	C1076.078857,240.002960 1069.272705,244.341385 1063.677979,249.715668 
M1060.073120,211.496597 
	C1063.988647,199.848236 1063.443115,188.302902 1058.889160,176.994873 
	C1054.223511,165.409378 1043.125244,158.996399 1030.135254,160.036697 
	C1019.824707,160.862427 1010.096313,168.822952 1008.466980,179.670639 
	C1007.051636,189.093918 1006.423096,198.912048 1007.407349,208.351273 
	C1008.732910,221.064087 1021.591919,233.498886 1037.951172,231.063416 
	C1049.134277,229.398544 1055.546997,221.958160 1060.073120,211.496597 
z"/>
<path fill="#161718" opacity="1.000000" stroke="none" 
	d="
M513.713257,165.564484 
	C508.175934,185.867950 489.862244,199.697479 468.281738,199.972214 
	C456.133087,200.126877 443.980804,200.000092 431.281525,200.000092 
	C431.281525,217.587540 431.281525,234.970474 431.281525,252.588165 
	C421.325317,252.588165 411.917633,252.588165 402.253998,252.588165 
	C402.253998,201.343857 402.253998,150.261581 402.253998,98.879219 
	C402.865662,98.692558 403.615570,98.252335 404.355469,98.268578 
	C427.648804,98.779854 451.057587,98.081390 474.201477,100.230736 
	C498.221985,102.461472 513.632446,120.310104 515.049194,144.410156 
	C515.453186,151.282593 514.279297,158.247787 513.713257,165.564484 
M464.921387,174.521225 
	C474.638306,173.695023 481.329742,168.958420 484.518127,159.542511 
	C489.760925,144.059540 482.204529,127.713524 467.596313,125.457649 
	C455.708069,123.621811 443.514130,123.765312 431.400452,123.027718 
	C431.400452,141.665024 431.400452,159.660110 431.400452,177.829514 
	C442.570160,176.778412 453.324371,175.766418 464.921387,174.521225 
z"/>
<path fill="#171819" opacity="1.000000" stroke="none" 
	d="
M526.193848,169.358643 
	C541.440491,133.640472 587.941467,128.702759 614.767212,148.402359 
	C633.246704,161.972839 641.409241,193.620392 633.371765,217.982910 
	C625.891602,240.655930 599.098022,256.627533 579.059082,255.663727 
	C540.164429,253.793045 517.591187,227.581512 522.369080,188.319229 
	C523.130310,182.063889 524.800720,175.919174 526.193848,169.358643 
M601.878052,219.230759 
	C609.467163,205.954208 610.138245,192.043777 604.676392,178.043442 
	C597.236694,158.973724 573.673950,153.707626 559.218933,167.712448 
	C554.373230,172.407288 550.895142,177.959488 550.922485,185.204269 
	C550.952515,193.154434 549.443542,201.296432 550.704712,209.011627 
	C552.526245,220.154556 559.960083,227.916504 571.002991,230.620560 
	C583.129211,233.589844 593.653625,230.060120 601.878052,219.230759 
z"/>
<path fill="#18191A" opacity="1.000000" stroke="none" 
	d="
M709.633179,164.368713 
	C702.361450,157.460968 694.166443,156.382141 685.292603,159.250580 
	C679.656555,161.072433 676.717529,165.137299 676.839111,170.251892 
	C676.960754,175.375900 679.980469,179.531128 685.491943,181.149857 
	C695.855652,184.193634 706.352905,186.784973 716.703369,189.870422 
	C720.810303,191.094711 724.863770,192.790054 728.617188,194.859360 
	C747.664368,205.360397 743.063293,233.671494 729.786438,242.820374 
	C708.403931,257.554871 686.416626,260.006683 662.976074,248.698395 
	C652.229553,243.513992 646.176880,233.069489 647.379150,221.167084 
	C655.435059,221.167084 663.553589,221.074783 671.664917,221.273636 
	C672.790527,221.301224 674.234680,222.534058 674.933655,223.600647 
	C683.323975,236.403915 697.092651,235.250336 708.303772,230.566986 
	C712.501221,228.813583 714.543457,224.824326 714.190308,219.897934 
	C713.838196,214.986954 710.885559,212.294174 706.624695,211.065094 
	C693.687683,207.333359 680.729858,203.653793 667.689941,200.305435 
	C657.562805,197.705017 651.600464,191.669830 649.946899,181.383972 
	C647.096252,163.651382 655.057983,148.428925 671.507324,141.147583 
	C689.286804,133.277451 706.827271,133.976212 723.559143,144.197632 
	C733.277039,150.134262 737.712402,159.256836 737.996643,171.147232 
	C730.464539,171.147232 722.980286,171.620636 715.626953,170.848160 
	C713.521484,170.626984 711.794800,166.799988 709.633179,164.368713 
z"/>
<path fill="#171819" opacity="1.000000" stroke="none" 
	d="
M747.997314,142.283325 
	C747.780029,139.727814 748.108154,138.336456 750.815857,138.448822 
	C755.303284,138.635040 759.804077,138.499481 764.732300,138.499481 
	C764.732300,129.116302 764.732300,119.880196 764.732300,110.323143 
	C773.892029,110.323143 782.628906,110.323143 791.789673,110.323143 
	C791.789673,119.241447 791.789673,128.316711 791.789673,137.814270 
	C799.782654,137.814270 807.368652,137.814270 815.227417,137.814270 
	C815.227417,145.336182 815.227417,152.435013 815.227417,159.896515 
	C807.759399,159.896515 800.336792,159.896515 792.437927,159.896515 
	C792.333984,161.640305 792.162354,163.058929 792.178406,164.475433 
	C792.361572,180.634399 792.238159,196.808594 792.986572,212.942062 
	C793.204407,217.637878 795.775696,222.282455 797.633606,226.800278 
	C798.055847,227.826965 799.920288,228.528076 801.251160,228.865250 
	C805.906494,230.044662 810.618713,230.999359 815.271423,232.031006 
	C815.271423,239.165802 815.271423,245.944351 815.271423,252.982880 
	C804.415710,253.413757 793.838379,254.226547 783.515198,250.262695 
	C770.717529,245.348663 765.228455,237.916473 765.183960,224.274902 
	C765.120972,204.947144 765.167969,185.619034 765.167969,166.291077 
	C765.167969,164.652985 765.167969,163.014893 765.167969,160.960419 
	C759.446655,160.960419 754.029968,160.960419 747.997314,160.960419 
	C747.997314,154.612305 747.997314,148.681961 747.997314,142.283325 
z"/>
<path fill="#F7F7F6" opacity="1.000000" stroke="none" 
	d="
M210.576508,205.579773 
	C196.292816,219.604431 182.321335,233.442566 168.177658,247.102402 
	C165.714920,249.480881 162.733566,251.564331 159.624924,252.976669 
	C154.676849,255.224701 149.885742,254.363098 145.809174,250.503235 
	C141.857788,246.761887 139.775894,242.184464 142.026260,237.073166 
	C143.923019,232.765091 146.374588,228.361572 149.646957,225.055984 
	C166.502594,208.029175 183.777420,191.418304 200.742996,174.498886 
	C207.183441,168.075974 213.188324,161.216324 219.391724,154.555725 
	C219.248215,154.121078 219.104721,153.686432 218.961227,153.251785 
	C216.058197,153.251785 213.154999,153.272690 210.252182,153.247787 
	C202.253983,153.179138 194.249481,153.264496 186.259415,152.967758 
	C175.968933,152.585602 170.535294,141.749054 175.908630,132.997574 
	C180.338165,125.783226 187.223190,123.242188 194.972168,123.216469 
	C213.962387,123.153458 232.958328,123.405991 251.943756,123.869080 
	C262.568878,124.128258 267.634338,129.007721 267.796234,139.632080 
	C268.136475,161.960434 268.064117,184.297592 267.915894,206.629517 
	C267.862732,214.638367 262.230652,219.216812 253.637238,219.000656 
	C246.523132,218.821732 243.009705,214.640091 243.000687,206.301208 
	C242.989716,196.151154 242.998093,186.001083 242.998093,175.006454 
	C231.925842,185.444870 221.378067,195.388809 210.576508,205.579773 
z"/>
<path fill="#F6F6F4" opacity="1.000000" stroke="none" 
	d="
M1060.025635,211.889221 
	C1055.546997,221.958160 1049.134277,229.398544 1037.951172,231.063416 
	C1021.591919,233.498886 1008.732910,221.064087 1007.407349,208.351273 
	C1006.423096,198.912048 1007.051636,189.093918 1008.466980,179.670639 
	C1010.096313,168.822952 1019.824707,160.862427 1030.135254,160.036697 
	C1043.125244,158.996399 1054.223511,165.409378 1058.889160,176.994873 
	C1063.443115,188.302902 1063.988647,199.848236 1060.025635,211.889221 
z"/>
<path fill="#F7F7F5" opacity="1.000000" stroke="none" 
	d="
M464.500000,174.637817 
	C453.324371,175.766418 442.570160,176.778412 431.400452,177.829514 
	C431.400452,159.660110 431.400452,141.665024 431.400452,123.027718 
	C443.514130,123.765312 455.708069,123.621811 467.596313,125.457649 
	C482.204529,127.713524 489.760925,144.059540 484.518127,159.542511 
	C481.329742,168.958420 474.638306,173.695023 464.500000,174.637817 
z"/>
<path fill="#F7F7F5" opacity="1.000000" stroke="none" 
	d="
M601.661011,219.524033 
	C593.653625,230.060120 583.129211,233.589844 571.002991,230.620560 
	C559.960083,227.916504 552.526245,220.154556 550.704712,209.011627 
	C549.443542,201.296432 550.952515,193.154434 550.922485,185.204269 
	C550.895142,177.959488 554.373230,172.407288 559.218933,167.712448 
	C573.673950,153.707626 597.236694,158.973724 604.676392,178.043442 
	C610.138245,192.043777 609.467163,205.954208 601.661011,219.524033 
z"/>
</svg>